<?xml version="1.0" encoding="UTF-8" standalone="no"?>
<!DOCTYPE svg PUBLIC "-//W3C//DTD SVG 1.1//EN"
 "http://www.w3.org/Graphics/SVG/1.1/DTD/svg11.dtd">
<!-- Generated by graphviz version 16.1.0 (0)
 -->
<!-- Title: G Pages: 1 -->
<svg width="617pt" height="262pt"
 viewBox="0.00 0.00 617.00 262.00" xmlns="http://www.w3.org/2000/svg" xmlns:xlink="http://www.w3.org/1999/xlink">
<g id="graph0" class="graph" transform="scale(1 1) rotate(0) translate(4 258.4)">
<polygon fill="white" stroke="none" points="-4,4 -4,-258.4 613.15,-258.4 613.15,4 -4,4"/>
<g id="a_graph0_0"><a xlink:href="https://github.com/mlcollard/build-files-f26-010/blob/1329ea38754a16859d98747201b4f57faba1efb7/Makefile" xlink:title="View this version of the Makefile">
<text xml:space="preserve" text-anchor="start" x="206.81" y="-226.4" font-family="Times,serif" font-size="20.00">Build for srcComplexity</text>
</a>
</g>
<!-- key -->
<g id="node1" class="node">
<text xml:space="preserve" text-anchor="start" x="92.13" y="-194.4" font-family="Times,serif" font-size="14.00" fill="green">● Phony Targets</text>
<text xml:space="preserve" text-anchor="start" x="92.13" y="-173.6" font-family="Times,serif" font-size="14.00" fill="red">● Generated Files</text>
<text xml:space="preserve" text-anchor="start" x="92.13" y="-152.8" font-family="Times,serif" font-size="14.00">● Source Files</text>
</g>
<!-- srccomplexity -->
<g id="node2" class="node">
<g id="a_node2"><a xlink:href="https://github.com/mlcollard/build-files-f26-010/blob/1329ea38754a16859d98747201b4f57faba1efb7/Makefile#L3-L4" xlink:title="3 &#160;srccomplexity : srcComplexity.o srcMLXPathCount.o&#10;4 &#160;&#160;&#160;&#160;&#160;g++ &#45;std=c++17 srcComplexity.o srcMLXPathCount.o &#45;lxml2 &#45;o srccomplexity">
<ellipse fill="none" stroke="black" cx="288.26" cy="-179.2" rx="65.74" ry="18"/>
<text xml:space="preserve" text-anchor="middle" x="288.26" y="-175" font-family="Times,serif" font-size="14.00" fill="red">srccomplexity</text>
</a>
</g>
</g>
<!-- srcComplexity.o -->
<g id="node3" class="node">
<g id="a_node3"><a xlink:href="https://github.com/mlcollard/build-files-f26-010/blob/1329ea38754a16859d98747201b4f57faba1efb7/Makefile#L6-L7" xlink:title="6 &#160;srcComplexity.o : srcComplexity.cpp srcMLXPathCount.hpp&#10;7 &#160;&#160;&#160;&#160;&#160;g++ &#45;std=c++17 &#45;c srcComplexity.cpp">
<ellipse fill="none" stroke="black" cx="195.26" cy="-90" rx="75.14" ry="18"/>
<text xml:space="preserve" text-anchor="middle" x="195.26" y="-85.8" font-family="Times,serif" font-size="14.00" fill="red">srcComplexity.o</text>
</a>
</g>
</g>
<!-- srccomplexity&#45;&gt;srcComplexity.o -->
<g id="edge1" class="edge">
<path fill="none" stroke="black" d="M270.76,-161.8C256.91,-148.81 237.34,-130.46 221.6,-115.7"/>
<polygon fill="black" stroke="black" points="224.1,-113.24 214.41,-108.96 219.31,-118.35 224.1,-113.24"/>
</g>
<!-- srcMLXPathCount.o -->
<g id="node4" class="node">
<g id="a_node4"><a xlink:href="https://github.com/mlcollard/build-files-f26-010/blob/1329ea38754a16859d98747201b4f57faba1efb7/Makefile#L9-L10" xlink:title=" 9 &#160;srcMLXPathCount.o : srcMLXPathCount.cpp srcMLXPathCount.hpp&#10;10 &#160;&#160;&#160;&#160;&#160;g++ &#45;std=c++17 &#45;I/usr/include/libxml2 &#45;c srcMLXPathCount.cpp">
<ellipse fill="none" stroke="black" cx="380.26" cy="-90" rx="91.78" ry="18"/>
<text xml:space="preserve" text-anchor="middle" x="380.26" y="-85.8" font-family="Times,serif" font-size="14.00" fill="red">srcMLXPathCount.o</text>
</a>
</g>
</g>
<!-- srccomplexity&#45;&gt;srcMLXPathCount.o -->
<g id="edge2" class="edge">
<path fill="none" stroke="black" d="M305.99,-161.39C319.65,-148.44 338.74,-130.35 354.14,-115.76"/>
<polygon fill="black" stroke="black" points="356.31,-118.52 361.16,-109.1 351.49,-113.44 356.31,-118.52"/>
</g>
<!-- srcComplexity.cpp -->
<g id="node5" class="node">
<ellipse fill="none" stroke="black" cx="84.26" cy="-18" rx="84.26" ry="18"/>
<text xml:space="preserve" text-anchor="middle" x="84.26" y="-13.8" font-family="Times,serif" font-size="14.00">srcComplexity.cpp</text>
</g>
<!-- srcComplexity.o&#45;&gt;srcComplexity.cpp -->
<g id="edge3" class="edge">
<path fill="none" stroke="black" d="M169.51,-72.76C154.77,-63.47 136.05,-51.66 119.9,-41.48"/>
<polygon fill="black" stroke="black" points="121.85,-38.57 111.53,-36.2 118.12,-44.49 121.85,-38.57"/>
</g>
<!-- srcMLXPathCount.hpp -->
<g id="node6" class="node">
<ellipse fill="none" stroke="black" cx="288.26" cy="-18" rx="101.43" ry="18"/>
<text xml:space="preserve" text-anchor="middle" x="288.26" y="-13.8" font-family="Times,serif" font-size="14.00">srcMLXPathCount.hpp</text>
</g>
<!-- srcComplexity.o&#45;&gt;srcMLXPathCount.hpp -->
<g id="edge4" class="edge">
<path fill="none" stroke="black" d="M217.3,-72.41C229.05,-63.56 243.72,-52.52 256.67,-42.77"/>
<polygon fill="black" stroke="black" points="258.63,-45.68 264.52,-36.87 254.42,-40.08 258.63,-45.68"/>
</g>
<!-- srcMLXPathCount.o&#45;&gt;srcMLXPathCount.hpp -->
<g id="edge6" class="edge">
<path fill="none" stroke="black" d="M357.99,-72.05C346.43,-63.26 332.13,-52.38 319.49,-42.76"/>
<polygon fill="black" stroke="black" points="321.92,-40.22 311.84,-36.95 317.68,-45.79 321.92,-40.22"/>
</g>
<!-- srcMLXPathCount.cpp -->
<g id="node7" class="node">
<ellipse fill="none" stroke="black" cx="508.26" cy="-18" rx="100.89" ry="18"/>
<text xml:space="preserve" text-anchor="middle" x="508.26" y="-13.8" font-family="Times,serif" font-size="14.00">srcMLXPathCount.cpp</text>
</g>
<!-- srcMLXPathCount.o&#45;&gt;srcMLXPathCount.cpp -->
<g id="edge5" class="edge">
<path fill="none" stroke="black" d="M410.27,-72.59C427.47,-63.18 449.3,-51.24 467.98,-41.02"/>
<polygon fill="black" stroke="black" points="469.57,-44.15 476.66,-36.28 466.21,-38.01 469.57,-44.15"/>
</g>
</g>
</svg>
