<?xml version="1.0" encoding="UTF-8" standalone="no"?>
<!DOCTYPE svg PUBLIC "-//W3C//DTD SVG 1.1//EN"
 "http://www.w3.org/Graphics/SVG/1.1/DTD/svg11.dtd">
<!-- Generated by graphviz version 16.1.0 (0)
 -->
<!-- Title: G Pages: 1 -->
<svg width="1084pt" height="355pt"
 viewBox="0.00 0.00 1084.00 355.00" xmlns="http://www.w3.org/2000/svg" xmlns:xlink="http://www.w3.org/1999/xlink">
<g id="graph0" class="graph" transform="scale(1 1) rotate(0) translate(4 351.2)">
<polygon fill="white" stroke="none" points="-4,4 -4,-351.2 1079.66,-351.2 1079.66,4 -4,4"/>
<g id="a_graph0_0"><a xlink:href="https://github.com/mlcollard/build-files-f26-010/blob/d0516360cf047e583faba47e81dd05317070bd7d/Makefile" xlink:title="View this version of the Makefile">
<text xml:space="preserve" text-anchor="start" x="440.06" y="-319.2" font-family="Times,serif" font-size="20.00">Build for srcComplexity</text>
</a>
</g>
<!-- key -->
<g id="node1" class="node">
<text xml:space="preserve" text-anchor="start" x="109.81" y="-287.2" font-family="Times,serif" font-size="14.00" fill="green">● Phony Targets</text>
<text xml:space="preserve" text-anchor="start" x="109.81" y="-266.4" font-family="Times,serif" font-size="14.00" fill="red">● Generated Files</text>
<text xml:space="preserve" text-anchor="start" x="109.81" y="-245.6" font-family="Times,serif" font-size="14.00">● Source Files</text>
<text xml:space="preserve" text-anchor="start" x="109.81" y="-224.8" font-family="Times,serif" font-size="14.00">⇢ From Pattern Rules</text>
</g>
<!-- all -->
<g id="node2" class="node">
<g id="a_node2"><a xlink:href="https://github.com/mlcollard/build-files-f26-010/blob/d0516360cf047e583faba47e81dd05317070bd7d/Makefile#L5-L6" xlink:title="5 &#160;.PHONY:all&#10;6 &#160;all : srccomplexity srcMLXPathCountTest">
<ellipse fill="none" stroke="black" cx="380.26" cy="-261.6" rx="27" ry="18"/>
<text xml:space="preserve" text-anchor="middle" x="380.26" y="-257.4" font-family="Times,serif" font-size="14.00" fill="green">all</text>
</a>
</g>
</g>
<!-- srccomplexity -->
<g id="node3" class="node">
<g id="a_node3"><a xlink:href="https://github.com/mlcollard/build-files-f26-010/blob/d0516360cf047e583faba47e81dd05317070bd7d/Makefile#L8-L10" xlink:title=" 8 &#160;# srccomplexity&#10; 9 &#160;srccomplexity : srcComplexity.o srcMLXPathCount.o&#10;10 &#160;&#160;&#160;&#160;&#160;g++ $(CXXFLAGS) $^ &#45;lxml2 &#45;o $@">
<ellipse fill="none" stroke="black" cx="287.26" cy="-162" rx="65.74" ry="18"/>
<text xml:space="preserve" text-anchor="middle" x="287.26" y="-157.8" font-family="Times,serif" font-size="14.00" fill="red">srccomplexity</text>
</a>
</g>
</g>
<!-- all&#45;&gt;srccomplexity -->
<g id="edge1" class="edge">
<path fill="none" stroke="black" d="M366.13,-245.78C351.5,-230.42 328.38,-206.16 310.95,-187.87"/>
<polygon fill="black" stroke="black" points="313.87,-185.86 304.44,-181.03 308.8,-190.68 313.87,-185.86"/>
</g>
<!-- srcMLXPathCountTest -->
<g id="node4" class="node">
<g id="a_node4"><a xlink:href="https://github.com/mlcollard/build-files-f26-010/blob/d0516360cf047e583faba47e81dd05317070bd7d/Makefile#L12-L14" xlink:title="12 &#160;# srcMLXPathCountTest&#10;13 &#160;srcMLXPathCountTest : srcMLXPathCountTest.o srcMLXPathCount.o&#10;14 &#160;&#160;&#160;&#160;&#160;g++ $(CXXFLAGS) $^ &#45;lxml2 &#45;o $@">
<ellipse fill="none" stroke="black" cx="472.26" cy="-162" rx="101.16" ry="18"/>
<text xml:space="preserve" text-anchor="middle" x="472.26" y="-157.8" font-family="Times,serif" font-size="14.00" fill="red">srcMLXPathCountTest</text>
</a>
</g>
</g>
<!-- all&#45;&gt;srcMLXPathCountTest -->
<g id="edge2" class="edge">
<path fill="none" stroke="black" d="M394.23,-245.78C408.7,-230.42 431.57,-206.16 448.82,-187.87"/>
<polygon fill="black" stroke="black" points="450.94,-190.71 455.25,-181.04 445.85,-185.91 450.94,-190.71"/>
</g>
<!-- srcComplexity.o -->
<g id="node5" class="node">
<g id="a_node5"><a xlink:href="https://github.com/mlcollard/build-files-f26-010/blob/d0516360cf047e583faba47e81dd05317070bd7d/Makefile#L16-L17" xlink:title="16 &#160;# every object file includes the srcMLXPathCount interface&#10;17 &#160;srcComplexity.o srcMLXPathCount.o srcMLXPathCountTest.o : srcMLXPathCount.hpp&#10;22 &#160;# compile any C++ source file&#10;23 &#160;%.o : %.cpp&#10;24 &#160;&#160;&#160;&#160;&#160;g++ $(CXXFLAGS) &#45;c $&lt;">
<ellipse fill="none" stroke="black" cx="195.26" cy="-90" rx="75.14" ry="18"/>
<text xml:space="preserve" text-anchor="middle" x="195.26" y="-85.8" font-family="Times,serif" font-size="14.00" fill="red">srcComplexity.o</text>
</a>
</g>
</g>
<!-- srccomplexity&#45;&gt;srcComplexity.o -->
<g id="edge3" class="edge">
<path fill="none" stroke="black" d="M265.92,-144.76C254.13,-135.79 239.27,-124.49 226.23,-114.56"/>
<polygon fill="black" stroke="black" points="228.4,-111.82 218.32,-108.55 224.16,-117.39 228.4,-111.82"/>
</g>
<!-- srcMLXPathCount.o -->
<g id="node6" class="node">
<g id="a_node6"><a xlink:href="https://github.com/mlcollard/build-files-f26-010/blob/d0516360cf047e583faba47e81dd05317070bd7d/Makefile#L16-L17" xlink:title="16 &#160;# every object file includes the srcMLXPathCount interface&#10;17 &#160;srcComplexity.o srcMLXPathCount.o srcMLXPathCountTest.o : srcMLXPathCount.hpp&#10;19 &#160;# libxml2 headers for the XPath code&#10;20 &#160;srcMLXPathCount.o : CXXFLAGS += &#45;I/usr/include/libxml2&#10;22 &#160;# compile any C++ source file&#10;23 &#160;%.o : %.cpp&#10;24 &#160;&#160;&#160;&#160;&#160;g++ $(CXXFLAGS) &#45;c $&lt;">
<ellipse fill="none" stroke="black" cx="380.26" cy="-90" rx="91.78" ry="18"/>
<text xml:space="preserve" text-anchor="middle" x="380.26" y="-85.8" font-family="Times,serif" font-size="14.00" fill="red">srcMLXPathCount.o</text>
</a>
</g>
</g>
<!-- srccomplexity&#45;&gt;srcMLXPathCount.o -->
<g id="edge4" class="edge">
<path fill="none" stroke="black" d="M308.83,-144.76C320.66,-135.86 335.54,-124.65 348.66,-114.78"/>
<polygon fill="black" stroke="black" points="350.74,-117.6 356.62,-108.79 346.53,-112.01 350.74,-117.6"/>
</g>
<!-- srcMLXPathCountTest&#45;&gt;srcMLXPathCount.o -->
<g id="edge6" class="edge">
<path fill="none" stroke="black" d="M449.99,-144.05C438.35,-135.2 423.91,-124.22 411.21,-114.55"/>
<polygon fill="black" stroke="black" points="413.6,-111.98 403.53,-108.71 409.36,-117.55 413.6,-111.98"/>
</g>
<!-- srcMLXPathCountTest.o -->
<g id="node7" class="node">
<g id="a_node7"><a xlink:href="https://github.com/mlcollard/build-files-f26-010/blob/d0516360cf047e583faba47e81dd05317070bd7d/Makefile#L16-L17" xlink:title="16 &#160;# every object file includes the srcMLXPathCount interface&#10;17 &#160;srcComplexity.o srcMLXPathCount.o srcMLXPathCountTest.o : srcMLXPathCount.hpp&#10;22 &#160;# compile any C++ source file&#10;23 &#160;%.o : %.cpp&#10;24 &#160;&#160;&#160;&#160;&#160;g++ $(CXXFLAGS) &#45;c $&lt;">
<ellipse fill="none" stroke="black" cx="598.26" cy="-90" rx="108.4" ry="18"/>
<text xml:space="preserve" text-anchor="middle" x="598.26" y="-85.8" font-family="Times,serif" font-size="14.00" fill="red">srcMLXPathCountTest.o</text>
</a>
</g>
</g>
<!-- srcMLXPathCountTest&#45;&gt;srcMLXPathCountTest.o -->
<g id="edge5" class="edge">
<path fill="none" stroke="black" d="M502.12,-144.41C518.86,-135.11 539.98,-123.38 558.15,-113.28"/>
<polygon fill="black" stroke="black" points="559.81,-116.36 566.85,-108.45 556.41,-110.24 559.81,-116.36"/>
</g>
<!-- srcMLXPathCount.hpp -->
<g id="node8" class="node">
<ellipse fill="none" stroke="black" cx="288.26" cy="-18" rx="101.43" ry="18"/>
<text xml:space="preserve" text-anchor="middle" x="288.26" y="-13.8" font-family="Times,serif" font-size="14.00">srcMLXPathCount.hpp</text>
</g>
<!-- srcComplexity.o&#45;&gt;srcMLXPathCount.hpp -->
<g id="edge7" class="edge">
<path fill="none" stroke="black" d="M217.3,-72.41C229.05,-63.56 243.72,-52.52 256.67,-42.77"/>
<polygon fill="black" stroke="black" points="258.63,-45.68 264.52,-36.87 254.42,-40.08 258.63,-45.68"/>
</g>
<!-- srcComplexity.cpp -->
<g id="node9" class="node">
<ellipse fill="none" stroke="black" cx="84.26" cy="-18" rx="84.26" ry="18"/>
<text xml:space="preserve" text-anchor="middle" x="84.26" y="-13.8" font-family="Times,serif" font-size="14.00">srcComplexity.cpp</text>
</g>
<!-- srcComplexity.o&#45;&gt;srcComplexity.cpp -->
<g id="edge8" class="edge">
<path fill="none" stroke="black" stroke-dasharray="5,2" d="M169.51,-72.76C154.77,-63.47 136.05,-51.66 119.9,-41.48"/>
<polygon fill="black" stroke="black" points="121.85,-38.57 111.53,-36.2 118.12,-44.49 121.85,-38.57"/>
</g>
<!-- srcMLXPathCount.o&#45;&gt;srcMLXPathCount.hpp -->
<g id="edge9" class="edge">
<path fill="none" stroke="black" d="M357.99,-72.05C346.43,-63.26 332.13,-52.38 319.49,-42.76"/>
<polygon fill="black" stroke="black" points="321.92,-40.22 311.84,-36.95 317.68,-45.79 321.92,-40.22"/>
</g>
<!-- srcMLXPathCount.cpp -->
<g id="node10" class="node">
<ellipse fill="none" stroke="black" cx="508.26" cy="-18" rx="100.89" ry="18"/>
<text xml:space="preserve" text-anchor="middle" x="508.26" y="-13.8" font-family="Times,serif" font-size="14.00">srcMLXPathCount.cpp</text>
</g>
<!-- srcMLXPathCount.o&#45;&gt;srcMLXPathCount.cpp -->
<g id="edge10" class="edge">
<path fill="none" stroke="black" stroke-dasharray="5,2" d="M410.27,-72.59C427.47,-63.18 449.3,-51.24 467.98,-41.02"/>
<polygon fill="black" stroke="black" points="469.57,-44.15 476.66,-36.28 466.21,-38.01 469.57,-44.15"/>
</g>
<!-- srcMLXPathCountTest.o&#45;&gt;srcMLXPathCount.hpp -->
<g id="edge11" class="edge">
<path fill="none" stroke="black" d="M535.9,-74.92C485.14,-63.46 413.45,-47.27 360.25,-35.26"/>
<polygon fill="black" stroke="black" points="361.2,-31.88 350.67,-33.09 359.66,-38.71 361.2,-31.88"/>
</g>
<!-- srcMLXPathCountTest.cpp -->
<g id="node11" class="node">
<ellipse fill="none" stroke="black" cx="744.26" cy="-18" rx="117.52" ry="18"/>
<text xml:space="preserve" text-anchor="middle" x="744.26" y="-13.8" font-family="Times,serif" font-size="14.00">srcMLXPathCountTest.cpp</text>
</g>
<!-- srcMLXPathCountTest.o&#45;&gt;srcMLXPathCountTest.cpp -->
<g id="edge12" class="edge">
<path fill="none" stroke="black" stroke-dasharray="5,2" d="M632.49,-72.59C652.4,-63.04 677.75,-50.89 699.27,-40.57"/>
<polygon fill="black" stroke="black" points="700.61,-43.81 708.12,-36.33 697.58,-37.49 700.61,-43.81"/>
</g>
<!-- run -->
<g id="node12" class="node">
<g id="a_node12"><a xlink:href="https://github.com/mlcollard/build-files-f26-010/blob/d0516360cf047e583faba47e81dd05317070bd7d/Makefile#L26-L29" xlink:title="26 &#160;# run srccomplexity on the demo file&#10;27 &#160;.PHONY:run&#10;28 &#160;run : srccomplexity&#10;29 &#160;&#160;&#160;&#160;&#160;./srccomplexity srcMLXPathCount.cpp.xml">
<ellipse fill="none" stroke="black" cx="287.26" cy="-261.6" rx="27" ry="18"/>
<text xml:space="preserve" text-anchor="middle" x="287.26" y="-257.4" font-family="Times,serif" font-size="14.00" fill="green">run</text>
</a>
</g>
</g>
<!-- run&#45;&gt;srccomplexity -->
<g id="edge13" class="edge">
<path fill="none" stroke="black" d="M287.26,-243.15C287.26,-228.86 287.26,-208.34 287.26,-191.64"/>
<polygon fill="black" stroke="black" points="290.76,-191.81 287.26,-181.81 283.76,-191.81 290.76,-191.81"/>
</g>
<!-- test -->
<g id="node13" class="node">
<g id="a_node13"><a xlink:href="https://github.com/mlcollard/build-files-f26-010/blob/d0516360cf047e583faba47e81dd05317070bd7d/Makefile#L31-L34" xlink:title="31 &#160;# execute tests&#10;32 &#160;.PHONY:test&#10;33 &#160;test : srcMLXPathCountTest&#10;34 &#160;&#160;&#160;&#160;&#160;./srcMLXPathCountTest">
<ellipse fill="none" stroke="black" cx="472.26" cy="-261.6" rx="27" ry="18"/>
<text xml:space="preserve" text-anchor="middle" x="472.26" y="-257.4" font-family="Times,serif" font-size="14.00" fill="green">test</text>
</a>
</g>
</g>
<!-- test&#45;&gt;srcMLXPathCountTest -->
<g id="edge14" class="edge">
<path fill="none" stroke="black" d="M472.26,-243.15C472.26,-228.86 472.26,-208.34 472.26,-191.64"/>
<polygon fill="black" stroke="black" points="475.76,-191.81 472.26,-181.81 468.76,-191.81 475.76,-191.81"/>
</g>
<!-- manpage -->
<g id="node14" class="node">
<g id="a_node14"><a xlink:href="https://github.com/mlcollard/build-files-f26-010/blob/d0516360cf047e583faba47e81dd05317070bd7d/Makefile#L36-L38" xlink:title="36 &#160;# Generate manpage&#10;37 &#160;.PHONY:manpage&#10;38 &#160;manpage : srccomplexity.1">
<ellipse fill="none" stroke="black" cx="967.26" cy="-162" rx="45.89" ry="18"/>
<text xml:space="preserve" text-anchor="middle" x="967.26" y="-157.8" font-family="Times,serif" font-size="14.00" fill="green">manpage</text>
</a>
</g>
</g>
<!-- srccomplexity.1 -->
<g id="node15" class="node">
<g id="a_node15"><a xlink:href="https://github.com/mlcollard/build-files-f26-010/blob/d0516360cf047e583faba47e81dd05317070bd7d/Makefile#L40-L41" xlink:title="40 &#160;srccomplexity.1 : srccomplexity.1.md&#10;41 &#160;&#160;&#160;&#160;&#160;lowdown &#45;s &#45;Tman &#45;o srccomplexity.1 srccomplexity.1.md">
<ellipse fill="none" stroke="black" cx="967.26" cy="-90" rx="72.99" ry="18"/>
<text xml:space="preserve" text-anchor="middle" x="967.26" y="-85.8" font-family="Times,serif" font-size="14.00" fill="red">srccomplexity.1</text>
</a>
</g>
</g>
<!-- manpage&#45;&gt;srccomplexity.1 -->
<g id="edge15" class="edge">
<path fill="none" stroke="black" d="M967.26,-143.7C967.26,-136.41 967.26,-127.73 967.26,-119.54"/>
<polygon fill="black" stroke="black" points="970.76,-119.62 967.26,-109.62 963.76,-119.62 970.76,-119.62"/>
</g>
<!-- srccomplexity.1.md -->
<g id="node16" class="node">
<ellipse fill="none" stroke="black" cx="967.26" cy="-18" rx="87.74" ry="18"/>
<text xml:space="preserve" text-anchor="middle" x="967.26" y="-13.8" font-family="Times,serif" font-size="14.00">srccomplexity.1.md</text>
</g>
<!-- srccomplexity.1&#45;&gt;srccomplexity.1.md -->
<g id="edge16" class="edge">
<path fill="none" stroke="black" d="M967.26,-71.7C967.26,-64.41 967.26,-55.73 967.26,-47.54"/>
<polygon fill="black" stroke="black" points="970.76,-47.62 967.26,-37.62 963.76,-47.62 970.76,-47.62"/>
</g>
<!-- man -->
<g id="node17" class="node">
<g id="a_node17"><a xlink:href="https://github.com/mlcollard/build-files-f26-010/blob/d0516360cf047e583faba47e81dd05317070bd7d/Makefile#L43-L46" xlink:title="43 &#160;# View the man page&#10;44 &#160;.PHONY:man&#10;45 &#160;man : manpage&#10;46 &#160;&#160;&#160;&#160;&#160;man ./srccomplexity.1">
<ellipse fill="none" stroke="black" cx="967.26" cy="-261.6" rx="27.66" ry="18"/>
<text xml:space="preserve" text-anchor="middle" x="967.26" y="-257.4" font-family="Times,serif" font-size="14.00" fill="green">man</text>
</a>
</g>
</g>
<!-- man&#45;&gt;manpage -->
<g id="edge17" class="edge">
<path fill="none" stroke="black" d="M967.26,-243.15C967.26,-228.86 967.26,-208.34 967.26,-191.64"/>
<polygon fill="black" stroke="black" points="970.76,-191.81 967.26,-181.81 963.76,-191.81 970.76,-191.81"/>
</g>
<!-- clean -->
<g id="node18" class="node">
<g id="a_node18"><a xlink:href="https://github.com/mlcollard/build-files-f26-010/blob/d0516360cf047e583faba47e81dd05317070bd7d/Makefile#L48-L51" xlink:title="48 &#160;# delete generated files&#10;49 &#160;.PHONY:clean&#10;50 &#160;clean :&#10;51 &#160;&#160;&#160;&#160;&#160;rm &#45;f srccomplexity srcComplexity.o srcMLXPathCount.o srcMLXPathCountTest srcMLXPathCountTest.o srccomplexity.1">
<ellipse fill="none" stroke="black" cx="1044.26" cy="-261.6" rx="31.41" ry="18"/>
<text xml:space="preserve" text-anchor="middle" x="1044.26" y="-257.4" font-family="Times,serif" font-size="14.00" fill="green">clean</text>
</a>
</g>
</g>
</g>
</svg>
