<?xml version="1.0" encoding="UTF-8" standalone="no"?>
<!DOCTYPE svg PUBLIC "-//W3C//DTD SVG 1.1//EN"
 "http://www.w3.org/Graphics/SVG/1.1/DTD/svg11.dtd">
<!-- Generated by graphviz version 16.1.0 (0)
 -->
<!-- Title: G Pages: 1 -->
<svg width="870pt" height="262pt"
 viewBox="0.00 0.00 870.00 262.00" xmlns="http://www.w3.org/2000/svg" xmlns:xlink="http://www.w3.org/1999/xlink">
<g id="graph0" class="graph" transform="scale(1 1) rotate(0) translate(4 258.4)">
<polygon fill="white" stroke="none" points="-4,4 -4,-258.4 866.41,-258.4 866.41,4 -4,4"/>
<g id="a_graph0_0"><a xlink:href="https://github.com/mlcollard/build-files-f26-010/blob/b9cd7cd9b54b6d1bbd443f266521344bee8bae91/Makefile" xlink:title="View this version of the Makefile">
<text xml:space="preserve" text-anchor="start" x="333.44" y="-226.4" font-family="Times,serif" font-size="20.00">Build for srcComplexity</text>
</a>
</g>
<!-- key -->
<g id="node1" class="node">
<text xml:space="preserve" text-anchor="start" x="75.77" y="-194.4" font-family="Times,serif" font-size="14.00" fill="green">● Phony Targets</text>
<text xml:space="preserve" text-anchor="start" x="75.77" y="-173.6" font-family="Times,serif" font-size="14.00" fill="red">● Generated Files</text>
<text xml:space="preserve" text-anchor="start" x="75.77" y="-152.8" font-family="Times,serif" font-size="14.00">● Source Files</text>
</g>
<!-- srccomplexity -->
<g id="node2" class="node">
<g id="a_node2"><a xlink:href="https://github.com/mlcollard/build-files-f26-010/blob/b9cd7cd9b54b6d1bbd443f266521344bee8bae91/Makefile#L3-L4" xlink:title="3 &#160;srccomplexity : srcComplexity.o srcMLXPathCount.o&#10;4 &#160;&#160;&#160;&#160;&#160;g++ &#45;std=c++17 srcComplexity.o srcMLXPathCount.o &#45;lxml2 &#45;o srccomplexity">
<ellipse fill="none" stroke="black" cx="271.89" cy="-179.2" rx="65.74" ry="18"/>
<text xml:space="preserve" text-anchor="middle" x="271.89" y="-175" font-family="Times,serif" font-size="14.00" fill="red">srccomplexity</text>
</a>
</g>
</g>
<!-- srcComplexity.o -->
<g id="node3" class="node">
<g id="a_node3"><a xlink:href="https://github.com/mlcollard/build-files-f26-010/blob/b9cd7cd9b54b6d1bbd443f266521344bee8bae91/Makefile#L6-L7" xlink:title="6 &#160;srcComplexity.o : srcComplexity.cpp srcMLXPathCount.hpp&#10;7 &#160;&#160;&#160;&#160;&#160;g++ &#45;std=c++17 &#45;c srcComplexity.cpp">
<ellipse fill="none" stroke="black" cx="363.89" cy="-90" rx="75.14" ry="18"/>
<text xml:space="preserve" text-anchor="middle" x="363.89" y="-85.8" font-family="Times,serif" font-size="14.00" fill="red">srcComplexity.o</text>
</a>
</g>
</g>
<!-- srccomplexity&#45;&gt;srcComplexity.o -->
<g id="edge1" class="edge">
<path fill="none" stroke="black" d="M289.63,-161.39C303.38,-148.36 322.62,-130.12 338.07,-115.47"/>
<polygon fill="black" stroke="black" points="340.26,-118.22 345.11,-108.8 335.44,-113.14 340.26,-118.22"/>
</g>
<!-- srcMLXPathCount.o -->
<g id="node4" class="node">
<g id="a_node4"><a xlink:href="https://github.com/mlcollard/build-files-f26-010/blob/b9cd7cd9b54b6d1bbd443f266521344bee8bae91/Makefile#L9-L10" xlink:title=" 9 &#160;srcMLXPathCount.o : srcMLXPathCount.cpp srcMLXPathCount.hpp&#10;10 &#160;&#160;&#160;&#160;&#160;g++ &#45;std=c++17 &#45;I/usr/include/libxml2 &#45;c srcMLXPathCount.cpp">
<ellipse fill="none" stroke="black" cx="178.89" cy="-90" rx="91.78" ry="18"/>
<text xml:space="preserve" text-anchor="middle" x="178.89" y="-85.8" font-family="Times,serif" font-size="14.00" fill="red">srcMLXPathCount.o</text>
</a>
</g>
</g>
<!-- srccomplexity&#45;&gt;srcMLXPathCount.o -->
<g id="edge2" class="edge">
<path fill="none" stroke="black" d="M254.4,-161.8C240.55,-148.81 220.98,-130.46 205.23,-115.7"/>
<polygon fill="black" stroke="black" points="207.73,-113.24 198.04,-108.96 202.94,-118.35 207.73,-113.24"/>
</g>
<!-- srcComplexity.cpp -->
<g id="node5" class="node">
<ellipse fill="none" stroke="black" cx="303.89" cy="-18" rx="84.26" ry="18"/>
<text xml:space="preserve" text-anchor="middle" x="303.89" y="-13.8" font-family="Times,serif" font-size="14.00">srcComplexity.cpp</text>
</g>
<!-- srcComplexity.o&#45;&gt;srcComplexity.cpp -->
<g id="edge3" class="edge">
<path fill="none" stroke="black" d="M349.37,-72.05C342.22,-63.71 333.45,-53.49 325.54,-44.25"/>
<polygon fill="black" stroke="black" points="328.43,-42.25 319.27,-36.94 323.12,-46.81 328.43,-42.25"/>
</g>
<!-- srcMLXPathCount.hpp -->
<g id="node6" class="node">
<ellipse fill="none" stroke="black" cx="507.89" cy="-18" rx="101.43" ry="18"/>
<text xml:space="preserve" text-anchor="middle" x="507.89" y="-13.8" font-family="Times,serif" font-size="14.00">srcMLXPathCount.hpp</text>
</g>
<!-- srcComplexity.o&#45;&gt;srcMLXPathCount.hpp -->
<g id="edge4" class="edge">
<path fill="none" stroke="black" d="M396.21,-73.29C416.16,-63.59 442.03,-51.02 463.84,-40.41"/>
<polygon fill="black" stroke="black" points="465.36,-43.57 472.82,-36.05 462.3,-37.27 465.36,-43.57"/>
</g>
<!-- srcMLXPathCount.o&#45;&gt;srcMLXPathCount.hpp -->
<g id="edge6" class="edge">
<path fill="none" stroke="black" d="M239.62,-76.08C294.39,-64.43 375.1,-47.25 433.68,-34.79"/>
<polygon fill="black" stroke="black" points="434.18,-38.26 443.24,-32.76 432.73,-31.41 434.18,-38.26"/>
</g>
<!-- srcMLXPathCount.cpp -->
<g id="node7" class="node">
<ellipse fill="none" stroke="black" cx="100.89" cy="-18" rx="100.89" ry="18"/>
<text xml:space="preserve" text-anchor="middle" x="100.89" y="-13.8" font-family="Times,serif" font-size="14.00">srcMLXPathCount.cpp</text>
</g>
<!-- srcMLXPathCount.o&#45;&gt;srcMLXPathCount.cpp -->
<g id="edge5" class="edge">
<path fill="none" stroke="black" d="M160.01,-72.05C150.5,-63.52 138.79,-53.01 128.31,-43.61"/>
<polygon fill="black" stroke="black" points="130.78,-41.12 121,-37.04 126.1,-46.33 130.78,-41.12"/>
</g>
<!-- srcMLXPathCountTest.o -->
<g id="node8" class="node">
<g id="a_node8"><a xlink:href="https://github.com/mlcollard/build-files-f26-010/blob/b9cd7cd9b54b6d1bbd443f266521344bee8bae91/Makefile#L12-L13" xlink:title="12 &#160;srcMLXPathCountTest.o : srcMLXPathCountTest.cpp srcMLXPathCount.hpp&#10;13 &#160;&#160;&#160;&#160;&#160;g++ &#45;std=c++17 &#45;c srcMLXPathCountTest.cpp">
<ellipse fill="none" stroke="black" cx="625.89" cy="-90" rx="108.4" ry="18"/>
<text xml:space="preserve" text-anchor="middle" x="625.89" y="-85.8" font-family="Times,serif" font-size="14.00" fill="red">srcMLXPathCountTest.o</text>
</a>
</g>
</g>
<!-- srcMLXPathCountTest.o&#45;&gt;srcMLXPathCount.hpp -->
<g id="edge8" class="edge">
<path fill="none" stroke="black" d="M597.63,-72.23C582.01,-62.97 562.41,-51.34 545.51,-41.32"/>
<polygon fill="black" stroke="black" points="547.61,-38.49 537.23,-36.4 544.04,-44.51 547.61,-38.49"/>
</g>
<!-- srcMLXPathCountTest.cpp -->
<g id="node9" class="node">
<ellipse fill="none" stroke="black" cx="744.89" cy="-18" rx="117.52" ry="18"/>
<text xml:space="preserve" text-anchor="middle" x="744.89" y="-13.8" font-family="Times,serif" font-size="14.00">srcMLXPathCountTest.cpp</text>
</g>
<!-- srcMLXPathCountTest.o&#45;&gt;srcMLXPathCountTest.cpp -->
<g id="edge7" class="edge">
<path fill="none" stroke="black" d="M654.39,-72.23C670.03,-63.04 689.62,-51.51 706.58,-41.54"/>
<polygon fill="black" stroke="black" points="708.06,-44.73 714.9,-36.64 704.51,-38.69 708.06,-44.73"/>
</g>
</g>
</svg>
